<?xml version="1.0" encoding="utf-8"?>
<svg viewBox="0 0 120 120" xmlns="http://www.w3.org/2000/svg">
  <rect style="paint-order: fill; fill-rule: nonzero; fill: rgb(147, 121, 190); stroke: rgba(0, 0, 0, 0);" x="0" y="0"
    width="120" height="120" rx="20" ry="20" />
  <path
    d="M 139.85751879882812 186.48399353027344 Q 139.38141879882812 186.48399353027344 139.02951879882812 186.13209353027344 Q 138.67761879882812 185.78019353027344 138.67761879882812 185.30409353027343 L 138.67761879882812 184.82799353027343 Q 138.67761879882812 183.66879353027343 139.60911879882812 182.94429353027343 Q 143.08671879882812 180.21189353027344 144.21486879882812 178.78359353027344 Q 145.34301879882813 177.35529353027343 145.34301879882813 175.98909353027344 Q 145.34301879882813 174.08469353027343 143.23161879882812 174.08469353027343 Q 141.94821879882812 174.08469353027343 140.08521879882812 174.78849353027343 Q 139.6919187988281 174.93339353027343 139.3400187988281 174.70569353027344 Q 138.9881187988281 174.47799353027344 138.9881187988281 174.06399353027345 L 138.9881187988281 173.19459353027344 Q 138.9881187988281 172.65639353027345 139.29861879882813 172.23204353027344 Q 139.60911879882812 171.80769353027344 140.12661879882813 171.66279353027343 Q 142.01031879882814 171.16599353027343 143.74911879882814 171.16599353027343 Q 146.25381879882812 171.16599353027343 147.60966879882812 172.35624353027345 Q 148.96551879882813 173.54649353027344 148.96551879882813 175.65789353027344 Q 148.96551879882813 177.47949353027343 147.81666879882812 179.12514353027345 Q 146.66781879882814 180.77079353027344 143.33511879882812 183.58599353027344 Q 143.31441879882811 183.60669353027345 143.31441879882811 183.62739353027345 Q 143.31441879882811 183.64809353027343 143.33511879882812 183.64809353027343 L 147.86841879882812 183.64809353027343 Q 148.34451879882812 183.64809353027343 148.68606879882813 183.99999353027343 Q 149.02761879882812 184.35189353027343 149.02761879882812 184.82799353027343 L 149.02761879882812 185.30409353027343 Q 149.02761879882812 185.78019353027344 148.68606879882813 186.13209353027344 Q 148.34451879882812 186.48399353027344 147.86841879882812 186.48399353027344 Z M 159.07582268066406 174.97479353027344 Q 159.07582268066406 174.97479353027344 158.78084768066407 174.40554353027343 Q 158.48587268066407 173.83629353027345 157.24387268066405 173.83629353027345 Q 156.00187268066406 173.83629353027345 155.41192268066408 174.97479353027344 Q 154.82197268066406 176.11329353027344 154.82197268066406 178.92849353027344 Q 154.82197268066406 181.74369353027345 155.41192268066408 182.88219353027344 Q 156.00187268066406 184.02069353027343 157.24387268066405 184.02069353027343 Q 158.48587268066407 184.02069353027343 159.07582268066406 182.88219353027344 Q 159.66577268066408 181.74369353027345 159.66577268066408 178.92849353027344 Q 159.66577268066408 176.11329353027344 159.07582268066406 174.97479353027344 Z M 161.76682268066406 184.86939353027344 Q 161.76682268066406 184.86939353027344 161.02679768066406 185.78019353027344 Q 160.28677268066406 186.69099353027343 157.24387268066405 186.69099353027343 Q 154.20097268066405 186.69099353027343 152.72092268066407 184.86939353027344 Q 151.24087268066407 183.04779353027342 151.24087268066407 178.92849353027344 Q 151.24087268066407 174.80919353027343 152.72092268066407 172.98759353027344 Q 154.20097268066405 171.16599353027343 157.24387268066405 171.16599353027343 Q 160.28677268066406 171.16599353027343 161.76682268066406 172.98759353027344 Q 163.24687268066407 174.80919353027343 163.24687268066407 178.92849353027344 Q 163.24687268066407 183.04779353027342 161.76682268066406 184.86939353027344 Z M 167.3231265625 180.79149353027344 L 167.3231265625 180.81219353027345 Q 167.3231265625 180.83289353027345 167.3438265625 180.83289353027345 L 170.7593265625 180.83289353027345 Q 170.9456265625 180.83289353027345 170.9456265625 180.66729353027344 L 170.9456265625 175.65789353027344 Q 170.9456265625 175.63719353027344 170.9249265625 175.63719353027344 Q 170.8835265625 175.63719353027344 170.8835265625 175.65789353027344 Z M 165.3773265625 183.58599353027344 Q 164.9012265625 183.58599353027344 164.5596765625 183.23409353027344 Q 164.2181265625 182.88219353027344 164.2181265625 182.40609353027344 L 164.2181265625 182.01279353027343 Q 164.2181265625 180.85359353027343 164.9012265625 179.88069353027345 L 170.2625265625 172.32519353027345 Q 170.9456265625 171.37299353027345 172.1048265625 171.37299353027345 L 173.1398265625 171.37299353027345 Q 173.6159265625 171.37299353027345 173.9574765625 171.72489353027345 Q 174.2990265625 172.07679353027345 174.2990265625 172.55289353027345 L 174.2990265625 180.66729353027344 Q 174.2990265625 180.83289353027345 174.4853265625 180.83289353027345 L 175.3133265625 180.83289353027345 Q 175.7894265625 180.83289353027345 176.1413265625 181.18479353027342 Q 176.4932265625 181.53669353027342 176.4932265625 182.01279353027343 L 176.4932265625 182.40609353027344 Q 176.4932265625 182.88219353027344 176.1413265625 183.23409353027344 Q 175.7894265625 183.58599353027344 175.3133265625 183.58599353027344 L 174.4853265625 183.58599353027344 Q 174.2990265625 183.58599353027344 174.2990265625 183.77229353027343 L 174.2990265625 185.30409353027343 Q 174.2990265625 185.78019353027344 173.9574765625 186.13209353027344 Q 173.6159265625 186.48399353027344 173.1398265625 186.48399353027344 L 172.1048265625 186.48399353027344 Q 171.6287265625 186.48399353027344 171.2871765625 186.13209353027344 Q 170.9456265625 185.78019353027344 170.9456265625 185.30409353027343 L 170.9456265625 183.77229353027343 Q 170.9456265625 183.58599353027344 170.7593265625 183.58599353027344 Z M 183.63308044433595 179.88069353027345 Q 182.49458044433595 180.35679353027345 182.02883044433594 180.90534353027343 Q 181.56308044433592 181.45389353027343 181.56308044433592 182.17839353027344 Q 181.56308044433592 183.06849353027343 182.28758044433593 183.64809353027343 Q 183.01208044433594 184.22769353027343 184.15058044433593 184.22769353027343 Q 185.28908044433592 184.22769353027343 186.00323044433594 183.64809353027343 Q 186.71738044433593 183.06849353027343 186.71738044433593 182.17839353027344 Q 186.71738044433593 181.39179353027345 186.16883044433592 180.88464353027345 Q 185.62028044433595 180.37749353027343 183.96428044433594 179.85999353027344 Q 183.81938044433593 179.79789353027343 183.63308044433595 179.88069353027345 Z M 184.15058044433593 173.62929353027343 Q 183.13628044433594 173.62929353027343 182.54633044433595 174.11574353027345 Q 181.95638044433593 174.60219353027344 181.95638044433593 175.36809353027343 Q 181.95638044433593 176.00979353027344 182.44283044433593 176.48589353027344 Q 182.92928044433594 176.96199353027345 184.12988044433592 177.35529353027343 Q 184.29548044433594 177.41739353027344 184.46108044433595 177.35529353027343 Q 186.38618044433593 176.61009353027345 186.38618044433593 175.36809353027343 Q 186.38618044433593 174.60219353027344 185.78588044433593 174.11574353027345 Q 185.18558044433593 173.62929353027343 184.15058044433593 173.62929353027343 Z M 188.57003044433594 185.51109353027343 Q 188.57003044433594 185.51109353027343 187.77825544433594 186.10104353027344 Q 186.98648044433594 186.69099353027343 184.15058044433593 186.69099353027343 Q 181.31468044433595 186.69099353027343 179.73113044433595 185.51109353027343 Q 178.14758044433594 184.33119353027342 178.14758044433594 182.34399353027345 Q 178.14758044433594 180.08769353027344 181.00418044433593 178.76289353027343 Q 181.02488044433593 178.76289353027343 181.02488044433593 178.72149353027345 Q 181.02488044433593 178.70079353027344 181.00418044433593 178.70079353027344 Q 178.60298044433594 177.33459353027342 178.60298044433594 175.03689353027343 Q 178.60298044433594 173.33949353027344 180.07268044433593 172.25274353027345 Q 181.54238044433595 171.16599353027343 184.15058044433593 171.16599353027343 Q 186.75878044433594 171.16599353027343 188.22848044433593 172.25274353027345 Q 189.69818044433595 173.33949353027344 189.69818044433595 175.03689353027343 Q 189.69818044433595 177.00339353027343 187.15208044433592 178.30749353027343 Q 187.13138044433595 178.30749353027343 187.13138044433595 178.32819353027344 Q 187.13138044433595 178.36959353027345 187.15208044433592 178.36959353027345 Q 190.15358044433594 179.61159353027344 190.15358044433594 182.34399353027345 Q 190.15358044433594 184.33119353027342 188.57003044433594 185.51109353027343 Z"
    transform="matrix(2.0438570976257324, 0, 0, 2.141688108444214, -275.1375427246094, -326.6963195800781)"
    style="fill: rgb(255, 255, 255); white-space: pre;" />
</svg>