<svg width="16" height="16" viewBox="0 0 16 16" fill="none" xmlns="http://www.w3.org/2000/svg">
<path d="M8.00179 3.69826C5.73162 3.69826 3.9005 5.43603 3.9005 7.59045C3.9005 9.74488 5.73162 11.4826 8.00179 11.4826C10.2719 11.4826 12.1031 9.74488 12.1031 7.59045C12.1031 5.43603 10.2719 3.69826 8.00179 3.69826ZM8.00179 10.1209C6.53475 10.1209 5.33542 8.98609 5.33542 7.59045C5.33542 6.19482 6.53118 5.06002 8.00179 5.06002C9.47239 5.06002 10.6682 6.19482 10.6682 7.59045C10.6682 8.98609 9.46882 10.1209 8.00179 10.1209ZM13.2274 3.53905C13.2274 4.04378 12.7991 4.44689 12.2708 4.44689C11.739 4.44689 11.3142 4.0404 11.3142 3.53905C11.3142 3.03771 11.7426 2.63121 12.2708 2.63121C12.7991 2.63121 13.2274 3.03771 13.2274 3.53905ZM15.9438 4.46044C15.8831 3.24434 15.5904 2.16713 14.6516 1.27961C13.7165 0.392099 12.5814 0.114327 11.2999 0.0533526C9.97925 -0.0177841 6.02075 -0.0177841 4.70006 0.0533526C3.4222 0.110939 2.28712 0.388711 1.34835 1.27623C0.409593 2.16374 0.120468 3.24095 0.0562186 4.45705C-0.0187395 5.71041 -0.0187395 9.46711 0.0562186 10.7205C0.116899 11.9366 0.409593 13.0138 1.34835 13.9013C2.28712 14.7888 3.41863 15.0666 4.70006 15.1276C6.02075 15.1987 9.97925 15.1987 11.2999 15.1276C12.5814 15.07 13.7165 14.7922 14.6516 13.9013C15.5868 13.0138 15.8795 11.9366 15.9438 10.7205C16.0187 9.46711 16.0187 5.7138 15.9438 4.46044ZM14.2376 12.0653C13.9592 12.7292 13.4202 13.2407 12.717 13.5083C11.664 13.9047 9.16542 13.8132 8.00179 13.8132C6.83815 13.8132 4.33597 13.9013 3.28656 13.5083C2.58695 13.2441 2.04796 12.7326 1.76598 12.0653C1.34835 11.066 1.44473 8.69477 1.44473 7.59045C1.44473 6.48614 1.35192 4.11153 1.76598 3.11562C2.04439 2.45168 2.58338 1.94017 3.28656 1.67256C4.33954 1.27623 6.83815 1.36769 8.00179 1.36769C9.16542 1.36769 11.6676 1.27961 12.717 1.67256C13.4166 1.93678 13.9556 2.44829 14.2376 3.11562C14.6552 4.11492 14.5588 6.48614 14.5588 7.59045C14.5588 8.69477 14.6552 11.0694 14.2376 12.0653Z" fill="white"/>
</svg>
