<svg width="19" height="15" viewBox="0 0 19 15" fill="none" xmlns="http://www.w3.org/2000/svg">
<path fill-rule="evenodd" clip-rule="evenodd" d="M8.90958 4.42069L8.86995 3.80241C8.75115 2.2 9.79388 0.736355 11.4438 0.168617C12.051 -0.0332854 13.0805 -0.0585232 13.7537 0.118141C14.0177 0.193854 14.5193 0.446157 14.8756 0.673297L15.5224 1.08968L16.2352 0.8752C16.6312 0.761592 17.1592 0.572346 17.3967 0.446158C17.6211 0.332625 17.8191 0.269493 17.8191 0.307387C17.8191 0.521871 17.3307 1.25369 16.9216 1.65742C16.3672 2.22523 16.5256 2.27571 17.6475 1.89714C18.3207 1.68266 18.3338 1.68266 18.2019 1.92238C18.1226 2.04857 17.7135 2.49019 17.2779 2.89392C16.5387 3.58792 16.4992 3.66364 16.4992 4.24403C16.4992 5.13986 16.0504 7.00723 15.6016 8.02925C14.77 9.94709 12.9881 11.928 11.2062 12.9248C8.69839 14.3254 5.35891 14.6786 2.54748 13.8585C1.61034 13.5809 0 12.8743 0 12.7482C0 12.7103 0.488346 12.6598 1.08236 12.6472C2.32308 12.622 3.5638 12.2939 4.61975 11.7135L5.33257 11.3098L4.51415 11.0448C3.35261 10.6663 2.30987 9.79567 2.04593 8.97555C1.96667 8.71059 1.99309 8.69794 2.73225 8.69794L3.49783 8.68535L2.85105 8.39516C2.08547 8.02925 1.38594 7.41096 1.04274 6.78009C0.79192 6.32589 0.475215 5.17768 0.5676 5.08938C0.59394 5.05156 0.871175 5.1272 1.18796 5.22815C2.09868 5.54359 2.21749 5.46788 1.68951 4.93796C0.699535 3.97907 0.39596 2.55325 0.871175 1.20322L1.09557 0.597583L1.96667 1.4177C3.74865 3.07059 5.84733 4.05478 8.24959 4.34498L8.90958 4.42069Z" fill="white"/>
</svg>
